# xmcd
#
# Track frame offsets:
#	150
#	15549
#	30584
#	45973
#	59320
#	71946
#	83208
#	102193
#	119134
#	132697
#
# Disc length: 2003 seconds
#
# Revision: 0
# Processed by: cddbd v1.5.1PL0 Copyright (c) Steve Scherf et al.
# Submitted via: audiograbber 1.83.01
#
DISCID=8a07d10a
DTITLE=Murphy, David Lee - Out With A Bang - Murphy, David Lee - Out With A Ban
DTITLE=g
DYEAR=1900
DGENRE=Country
TTITLE0=Can't Turn It Off
TTITLE1=Party Crowd
TTITLE2=Mama 'N Them
TTITLE3=High Weeds And Rust
TTITLE4=Fish Ain't Bitin'
TTITLE5=Out With A Bang
TTITLE6=Greatest Show On Earth
TTITLE7=Dust On The Bottle
TTITLE8=Just Once
TTITLE9=Why Can't People Just Get Along
EXTD=
EXTT0=
EXTT1=
EXTT2=
EXTT3=
EXTT4=
EXTT5=
EXTT6=
EXTT7=
EXTT8=
EXTT9=
PLAYORDER=
